<svg height="512pt" viewBox="0 -41 512 511" width="512pt" xmlns="http://www.w3.org/2000/svg"><path d="m481.851562 179.003906h-20.78125c-4.230468 0-7.664062-3.433594-7.664062-7.667968v-44.964844c0-4.234375 3.433594-7.664063 7.664062-7.664063h20.78125c16.625 0 30.148438 13.523438 30.148438 30.148438 0 16.621093-13.523438 30.148437-30.148438 30.148437zm-10.730468-15.332031h10.332031c7.59375 0 14.265625-5.550781 15.121094-13.097656 1.011719-8.9375-5.984375-16.539063-14.722657-16.539063h-10.730468zm0 0" fill="#423e38"/><path d="m445.503906 406.859375h-306.007812v-321.964844h306.007812c17.535156 0 31.75 14.214844 31.75 31.75v258.464844c0 17.535156-14.214844 31.75-31.75 31.75zm0 0" fill="#9dbdcb"/><path d="m445.503906 84.894531h-29.382812c17.535156 0 31.75 14.214844 31.75 31.75v258.464844c0 17.535156-14.214844 31.75-31.75 31.75h29.382812c17.535156 0 31.75-14.214844 31.75-31.75v-258.464844c0-17.535156-14.214844-31.75-31.75-31.75zm0 0" fill="#86a1ad"/><path d="m139.496094 134.117188h337.757812v223.523437h-337.757812zm0 0" fill="#45748c"/><path d="m447.871094 134.117188h29.382812v223.523437h-29.382812zm0 0" fill="#3a6175"/><path d="m99.128906 61.648438h-58.761718v-25.574219c0-7.042969 5.707031-12.75 12.75-12.75h33.261718c7.042969 0 12.75 5.707031 12.75 12.75zm0 0" fill="#423e38"/><path d="m396.359375 245.878906c0 48.59375-39.390625 87.984375-87.984375 87.984375s-87.984375-39.390625-87.984375-87.984375 39.390625-87.984375 87.984375-87.984375 87.984375 39.390625 87.984375 87.984375zm0 0" fill="#423e38"/><path d="m360.710938 175.144531c10.84375 14.628907 17.253906 32.734375 17.253906 52.339844 0 72.722656-83 113.21875-140.324219 70.730469 16.03125 21.628906 41.746094 35.648437 70.734375 35.648437 48.59375 0 87.984375-39.390625 87.984375-87.984375 0-28.988281-14.019531-54.703125-35.648437-70.734375zm0 0" fill="#2e2e2e"/><path d="m363.65625 245.878906c0 30.53125-24.75 55.28125-55.28125 55.28125s-55.28125-24.75-55.28125-55.28125 24.75-55.285156 55.28125-55.285156 55.28125 24.753906 55.28125 55.285156zm0 0" fill="#8dffff"/><path d="m334.910156 197.371094c19.964844 36.414062-6.242187 81.820312-48.507812 81.820312-9.617188 0-18.660156-2.457031-26.535156-6.777344 9.390624 17.132813 27.59375 28.746094 48.507812 28.746094 30.53125 0 55.28125-24.75 55.28125-55.28125 0-20.914062-11.613281-39.117187-28.746094-48.507812zm0 0" fill="#7de3e3"/><path d="m431.785156 190.597656h-14.328125c-8.835937 0-16-7.164062-16-16v-.703125c0-8.839843 7.164063-16 16-16h14.328125c8.839844 0 16 7.160157 16 16v.703125c0 8.835938-7.160156 16-16 16zm0 0" fill="#ffbf14"/><path d="m115.480469 61.648438h-91.464844c-13.261719 0-24.015625 10.75-24.015625 24.015624v320.429688c0 13.265625 10.753906 24.015625 24.015625 24.015625h91.464844c13.265625 0 24.015625-10.75 24.015625-24.015625v-320.429688c0-13.265624-10.75-24.015624-24.015625-24.015624zm0 0" fill="#9dbdcb"/><path d="m115.480469 61.648438h-29.378907c13.261719 0 24.015626 10.75 24.015626 24.015624v320.429688c0 13.265625-10.753907 24.015625-24.015626 24.015625h29.378907c13.265625 0 24.015625-10.75 24.015625-24.015625v-320.429688c0-13.265624-10.75-24.015624-24.015625-24.015624zm0 0" fill="#86a1ad"/><path d="m0 117.765625h139.496094v256.226563h-139.496094zm0 0" fill="#45748c"/><path d="m110.117188 117.765625h29.378906v256.226563h-29.378906zm0 0" fill="#3a6175"/><path d="m385.15625 22.191406c-5.542969-13.144531-18.417969-21.691406-32.683594-21.691406h-88.195312c-14.265625 0-27.140625 8.546875-32.683594 21.691406l-26.4375 62.707032h206.4375zm0 0" fill="#45748c"/><path d="m385.15625 22.191406c-5.542969-13.144531-18.417969-21.691406-32.683594-21.691406h-30.660156c14.265625 0 27.144531 8.546875 32.683594 21.691406l26.4375 62.707032h30.660156zm0 0" fill="#3a6175"/></svg>