<svg height="511pt" viewBox="0 0 511.99935 511" width="511pt" xmlns="http://www.w3.org/2000/svg"><path d="m464.472656 48.023438c-63.367187-63.363282-166.101562-63.363282-229.464844 0-63.363281 63.363281-63.363281 166.097656 0 229.464843 63.363282 63.363281 166.097657 63.363281 229.464844 0 63.363282-63.367187 63.363282-166.101562 0-229.464843zm0 0" fill="#9dbdcb"/><path d="m443.402344 30.226562c58.6875 63.652344 57.140625 162.855469-4.636719 224.632813-56.742187 56.742187-145.054687 62.671875-208.394531 17.792969 62.824218 68.140625 169.152344 69.789062 234.105468 4.835937 71.21875-71.21875 60.933594-189.160156-21.074218-247.261719zm0 0" fill="#86a1ad"/><path d="m217.992188 257.480469-61.394532 61.390625 37.027344 37.027344 61.394531-61.394532c-14.261719-10.277344-26.730469-22.738281-37.027343-37.023437zm0 0" fill="#423e38"/><path d="m217.992188 257.480469-23.148438 23.148437c10.03125 13.914063 22.542969 26.585938 37.027344 37.023438l23.148437-23.148438c-14.261719-10.277344-26.730469-22.738281-37.027343-37.023437zm0 0" fill="#302e29"/><path d="m364.140625 61.664062c-9.597656-.863281-19.199219-.863281-28.796875 0-82.195312 11.644532-117.761719 113.324219-57.800781 173.289063 39.875 39.875 104.523437 39.875 144.398437 0 59.902344-59.902344 24.507813-161.628906-57.800781-173.289063zm0 0" fill="#8dffff"/><path d="m423.921875 92.589844c19.007813 38.203125 12.59375 85.839844-19.246094 117.679687-40.582031 40.582031-106.742187 39.824219-146.378906-2.035156 30.960937 62.230469 114.21875 76.148437 163.644531 26.71875 39.203125-39.203125 39.863282-102.351563 1.980469-142.363281zm0 0" fill="#7de3e3"/><path d="m212.402344 374.675781-74.582032-74.582031c-3-3-7.859374-3-10.859374 0-10.878907 10.875-98.640626 98.640625-109.507813 109.507812-23.269531 23.269532-23.269531 61 0 84.269532l1.171875 1.171875c23.269531 23.273437 61 23.273437 84.273438 0l109.503906-109.507813c3-2.996094 3-7.859375 0-10.859375zm0 0" fill="#45748c"/><path d="m212.402344 374.675781-26.394532-26.394531c3 3 3 7.859375 0 10.859375l-109.507812 109.507813c-18.875 18.875-47.269531 22.4375-69.738281 10.691406 18.949219 36.238281 67.15625 44.683594 96.136719 15.703125l109.503906-109.507813c3-2.996094 3-7.859375 0-10.859375zm0 0" fill="#3a6175"/></svg>