<svg height="512pt" viewBox="-140 0 512 512" width="512pt" xmlns="http://www.w3.org/2000/svg"><path d="m101.902344 256.003906h27.789062v243.707032h-27.789062zm0 0" fill="#e7e7e7"/><path d="m101.902344 256.003906h13.894531v243.707032h-13.894531zm0 0" fill="#dbdbdb"/><path d="m146.621094 228.984375v31.816406c0 4.585938-3.722656 8.308594-8.308594 8.308594h-43.691406c-4.589844 0-8.308594-3.722656-8.308594-8.308594v-51.539062h60.308594zm0 0" fill="#6285a4"/><path d="m116.464844 260.800781v-51.539062h-30.152344v51.539062c0 4.585938 3.71875 8.308594 8.308594 8.308594h30.15625c-4.589844 0-8.3125-3.722656-8.3125-8.308594zm0 0" fill="#567a96"/><path d="m232.933594 116.464844c0 64.324218-52.144532 116.46875-116.46875 116.46875-64.320313 0-116.464844-52.144532-116.464844-116.46875 0-64.320313 52.144531-116.464844 116.464844-116.464844 64.324218 0 116.46875 52.144531 116.46875 116.464844zm0 0" fill="#f64446"/><path d="m50.371094 68.730469 113.828125 113.828125c2.65625 2.660156 2.105469 7.070312-1.085938 9.054687-13.902343 8.648438-30.363281 13.550781-48 13.289063-47.472656-.710938-86.296875-39.472656-87.078125-86.945313-.292968-17.6875 4.613282-34.207031 13.28125-48.136719 1.984375-3.191406 6.398438-3.746093 9.054688-1.089843zm0 0" fill="#1a94fa"/><path d="m138.535156 190.8125c-47.472656-.710938-86.296875-39.472656-87.078125-86.945312-.171875-10.332032 1.445313-20.261719 4.535157-29.511719l-5.621094-5.625c-2.65625-2.65625-7.070313-2.101563-9.054688 1.089843-8.667968 13.929688-13.574218 30.449219-13.28125 48.136719.78125 47.472657 39.605469 86.234375 87.078125 86.945313 17.636719.261718 34.101563-4.640625 48-13.289063 1.726563-1.070312 2.671875-2.855469 2.765625-4.6875-8.628906 2.648438-17.8125 4.027344-27.34375 3.886719zm0 0" fill="#0e89dd"/><path d="m204.898438 114.882812c.308593 17.714844-4.589844 34.269532-13.28125 48.230469-1.984376 3.191407-6.398438 3.746094-9.054688 1.089844l-113.832031-113.832031c-2.65625-2.65625-2.101563-7.070313 1.085937-9.054688 13.890625-8.644531 30.339844-13.539062 47.964844-13.285156 47.453125.6875 86.285156 39.398438 87.117188 86.851562zm0 0" fill="#1a94fa"/><path d="m186.445312 327.554688v44.917968c0 5.886719-4.773437 10.648438-10.648437 10.648438h-120c-5.878906 0-10.652344-4.761719-10.652344-10.648438v-44.917968c0-5.886719 4.773438-10.652344 10.652344-10.652344h120c5.875 0 10.648437 4.765625 10.648437 10.652344zm0 0" fill="#acacac"/><path d="m77.019531 351.675781c-5.875 0-10.648437-4.765625-10.648437-10.652343v-24.121094h-10.574219c-5.878906 0-10.652344 4.765625-10.652344 10.652344v44.917968c0 5.886719 4.773438 10.648438 10.652344 10.648438h120c5.875 0 10.648437-4.761719 10.648437-10.648438v-20.796875zm0 0" fill="#a3a3a3"/><path d="m154.1875 469.585938v20.980468h-76.785156v-20.980468c0-3.691407 3-6.691407 6.691406-6.691407h63.402344c3.691406 0 6.691406 3 6.691406 6.691407zm0 0" fill="#6285a4"/><path d="m110.054688 462.894531h-25.960938c-3.691406 0-6.691406 3-6.691406 6.691407v20.980468h25.960937v-20.980468c0-3.691407 3-6.691407 6.691407-6.691407zm0 0" fill="#567a96"/><path d="m180.148438 495.753906v7.925782c0 4.597656-3.722657 8.320312-8.320313 8.320312h-112.0625c-4.597656 0-8.320313-3.722656-8.320313-8.320312v-7.925782c0-4.601562 3.722657-8.332031 8.320313-8.332031h112.0625c4.597656 0 8.320313 3.730469 8.320313 8.332031zm0 0" fill="#627182"/><path d="m79.417969 499.710938c-4.597657 0-8.320313-3.722657-8.320313-8.320313v-3.96875h-11.332031c-4.597656 0-8.320313 3.730469-8.320313 8.332031v7.925782c0 4.597656 3.722657 8.320312 8.320313 8.320312h112.0625c4.597656 0 8.320313-3.722656 8.320313-8.320312v-3.96875zm0 0" fill="#526272"/><g fill="#9d9d9e"><path d="m81.257812 357.746094h-13.4375c-4.273437 0-7.734374-3.460938-7.734374-7.734375 0-4.269531 3.460937-7.730469 7.734374-7.730469h13.4375c4.273438 0 7.734376 3.460938 7.734376 7.730469 0 4.273437-3.460938 7.734375-7.734376 7.734375zm0 0"/><path d="m164.808594 357.746094h-62.90625c-4.273438 0-7.734375-3.460938-7.734375-7.734375 0-4.269531 3.460937-7.730469 7.734375-7.730469h62.90625c4.273437 0 7.734375 3.460938 7.734375 7.730469 0 4.273437-3.460938 7.734375-7.734375 7.734375zm0 0"/></g></svg>