<svg height="512pt" viewBox="0 0 512 512" width="512pt" xmlns="http://www.w3.org/2000/svg"><path d="m249.289062 151.582031-18.996093 9.507813c-104.429688 52.207031-169.292969 158.164062-169.292969 274.910156l27.480469 8.320312c32.371093-48.574218 92.09375-71.644531 148.828125-57.539062l18.691406 4.679688-2.003906-35.847657c-24.292969-18.578125-39.703125-45.597656-41.808594-76.746093-2.375-35.332032 12.128906-69.308594 39.785156-91.425782zm0 0" fill="#ff641a"/><path d="m262.710938 91.582031-6.710938 13.417969v24.011719l2.269531 2.839843c52.171875 65.214844 50.019531 157.839844-2.269531 220.976563v38.632813l7.820312-2.070313c51.90625-16.25 108.402344-8.546875 153.785157 21.707031l34.394531-13.859375c0-129.855469-73.144531-247.589843-189.289062-305.65625zm0 0" fill="#f03800"/><path d="m271 133.5v302.5h-30v-340l15 18.898438zm0 0" fill="#766e6e"/><path d="m271 133.5v302.5h-15v-321.101562zm0 0" fill="#5b5555"/><path d="m241 15-147.898438 74.097656 147.898438 36.902344 15 3.898438 15 3.601562v-133.5zm0 0" fill="#ffd396"/><path d="m271 0v133.5l-15-3.601562v-122.398438zm0 0" fill="#ffb64c"/><path d="m256 406-256 16.5 45.398438 89.5h385.300781l81.300781-122.800781zm0 0" fill="#efe2dd"/><path d="m512 389.199219-81.300781 122.800781h-174.699219v-106zm0 0" fill="#e1d3ce"/></svg>