<svg height="512pt" viewBox="0 -84 512 512" width="512pt" xmlns="http://www.w3.org/2000/svg"><path d="m488.914062 74.0625h-131.734374c-12.753907 0-23.089844 10.335938-23.089844 23.085938v80.128906c-36.214844-20.179688-67.738282-43.253906-92.257813-70.648438-54.71875-61.125-132.597656-104.3125-213.949219-106.6171872-15.324218-.4335938-27.882812 12.1250002-27.882812 27.4531252 0 14.390625 11.101562 26.5 25.464844 27.375 65.828125 3.996094 127.375 45.816406 158.144531 113.601562 26.238281 57.796875 63.503906 105.558594 109.394531 144.648438 84.257813 71.777344 218.996094 12.65625 218.996094-102.027344v-113.914062c0-12.75-10.335938-23.085938-23.085938-23.085938zm0 0" fill="#9e5015"/><path d="m488.914062 74.0625h-21.914062v99.9375c0 105.890625-114.863281 164.402344-198.804688 116.257812 7.957032 7.921876 16.230469 15.527344 24.808594 22.832032 84.257813 71.777344 218.996094 12.65625 218.996094-102.027344v-113.914062c0-12.75-10.335938-23.085938-23.085938-23.085938zm0 0" fill="#854312"/><path d="m149.726562 116.355469c7.8125 8.722656 14.839844 18.15625 21.050782 28.152343 5.003906-5.570312 45.710937-50.875 51.914062-57.785156-7.691406-7.410156-15.734375-14.449218-24.238281-20.9375-.507813.527344 4.210937-4.371094-48.726563 50.570313zm0 0" fill="#ff4c4c"/></svg>