<svg height="512pt" viewBox="-37 0 512 512" width="512pt" xmlns="http://www.w3.org/2000/svg"><path d="m411.101562 0h-385.019531c-14.402343 0-26.082031 11.679688-26.082031 26.082031v385.019531c0 14.40625 11.679688 26.082032 26.082031 26.082032h385.015625c14.40625 0 26.085938-11.675782 26.085938-26.082032v-385.019531c0-14.402343-11.675782-26.082031-26.082032-26.082031zm0 0" fill="#2c5771"/><path d="m411.101562 0h-32.40625c14.402344 0 26.082032 11.679688 26.082032 26.082031v385.019531c0 14.40625-11.679688 26.082032-26.082032 26.082032h32.40625c14.40625 0 26.082032-11.675782 26.082032-26.082032v-385.019531c0-14.402343-11.675782-26.082031-26.082032-26.082031zm0 0" fill="#24475c"/><path d="m378.125 50.761719h-319.066406c-4.582032 0-8.296875 3.714843-8.296875 8.296875v37.632812h.167969c6.089843 0 11.027343 4.9375 11.027343 11.027344v64.425781c0 6.089844-4.9375 11.027344-11.027343 11.027344h-.167969v70.839844h.167969c6.089843 0 11.027343 4.9375 11.027343 11.027343v64.425782c0 6.09375-4.9375 11.03125-11.027343 11.03125h-.167969v37.628906c0 4.582031 3.714843 8.296875 8.296875 8.296875h319.066406c4.582031 0 8.296875-3.714844 8.296875-8.296875v-319.066406c0-4.582032-3.714844-8.296875-8.296875-8.296875zm0 0" fill="#45748c"/><path d="m378.125 50.761719h-42.894531c4.582031 0 8.296875 3.714843 8.296875 8.296875v319.066406c0 4.582031-3.714844 8.296875-8.296875 8.296875h42.894531c4.582031 0 8.296875-3.714844 8.296875-8.296875v-319.066406c0-4.582032-3.714844-8.296875-8.296875-8.296875zm0 0" fill="#3a6175"/><path d="m51.25 183.171875h-51.25v-86.480469h51.25c5.914062 0 10.707031 4.792969 10.707031 10.707032v65.066406c0 5.914062-4.792969 10.707031-10.707031 10.707031zm0 0" fill="#ffbf14"/><path d="m50.929688 96.691406h-22.671876c6.09375 0 11.03125 4.9375 11.03125 11.027344v64.425781c0 6.089844-4.9375 11.027344-11.03125 11.027344h22.671876c6.089843 0 11.027343-4.9375 11.027343-11.027344v-64.425781c0-6.089844-4.9375-11.027344-11.027343-11.027344zm0 0" fill="#e0a812"/><path d="m51.25 340.496094h-51.25v-86.484375h51.25c5.914062 0 10.707031 4.792969 10.707031 10.707031v65.066406c0 5.914063-4.792969 10.710938-10.707031 10.710938zm0 0" fill="#ffbf14"/><path d="m50.929688 254.011719h-20.609376c6.089844 0 11.027344 4.9375 11.027344 11.027343v64.425782c0 6.089844-4.9375 11.03125-11.027344 11.03125h20.609376c6.089843 0 11.027343-4.941406 11.027343-11.03125v-64.425782c0-6.089843-4.9375-11.027343-11.027343-11.027343zm0 0" fill="#e0a812"/><path d="m289.984375 218.59375c0 39.429688-31.960937 71.390625-71.390625 71.390625s-71.394531-31.960937-71.394531-71.390625 31.964843-71.394531 71.394531-71.394531 71.390625 31.964843 71.390625 71.394531zm0 0" fill="#423e38"/><path d="m245.75 218.59375c0 14.996094-12.160156 27.15625-27.15625 27.15625-15 0-27.160156-12.160156-27.160156-27.15625 0-15 12.160156-27.160156 27.160156-27.160156 14.996094 0 27.15625 12.160156 27.15625 27.160156zm0 0" fill="#949494"/><path d="m339.160156 297.988281c-9.730468 0-17.480468-8.144531-17.003906-17.863281l6.339844-129.078125c.203125-4.085937 3.570312-7.292969 7.660156-7.292969h6.007812c4.089844 0 7.460938 3.207032 7.660157 7.292969l6.339843 129.078125c.476563 9.71875-7.273437 17.863281-17.003906 17.863281zm0 0" fill="#ffbf14"/><path d="m328.070312 159.726562h-10.851562c-5.667969 0-10.261719 4.59375-10.261719 10.257813 0 5.667969 4.59375 10.261719 10.261719 10.261719h9.84375zm0 0" fill="#ffbf14"/><path d="m361.101562 159.726562h-10.851562l1.007812 20.519532h9.84375c5.667969 0 10.261719-4.59375 10.261719-10.261719 0-5.664063-4.59375-10.257813-10.261719-10.257813zm0 0" fill="#f2b134"/><path d="m130.207031 512h-32.488281c-5.699219 0-10.597656-4.050781-11.667969-9.648438l-12.449219-65.167968h80.71875l-12.449218 65.167968c-1.070313 5.601563-5.964844 9.648438-11.664063 9.648438zm0 0" fill="#423e38"/><path d="m125.828125 437.183594-12.449219 65.167968c-1.070312 5.597657-5.964844 9.648438-11.664062 9.648438h28.488281c5.699219 0 10.597656-4.050781 11.667969-9.648438l12.449218-65.167968zm0 0" fill="#302e29"/><path d="m339.46875 512h-32.488281c-5.699219 0-10.597657-4.050781-11.664063-9.648438l-12.453125-65.167968h80.722657l-12.453126 65.167968c-1.070312 5.601563-5.964843 9.648438-11.664062 9.648438zm0 0" fill="#423e38"/><path d="m333.796875 437.183594-12.453125 65.167968c-1.070312 5.597657-5.964844 9.648438-11.664062 9.648438h29.789062c5.699219 0 10.59375-4.050781 11.664062-9.648438l12.453126-65.167968zm0 0" fill="#302e29"/><g fill="#ffbf14"><path d="m218.59375 183.425781c4.265625 0 7.726562-3.460937 7.726562-7.730469v-5.867187c0-4.269531-3.460937-7.730469-7.726562-7.730469-4.269531 0-7.730469 3.460938-7.730469 7.730469v5.867187c0 4.269532 3.460938 7.730469 7.730469 7.730469zm0 0"/><path d="m254.386719 193.726562 4.152343-4.148437c3.015626-3.019531 3.019532-7.914063 0-10.929687-3.019531-3.019532-7.910156-3.019532-10.929687-.003907l-4.152344 4.152344c-3.015625 3.015625-3.015625 7.910156 0 10.929687 3.019531 3.015626 7.914063 3.015626 10.929688 0zm0 0"/><path d="m253.757812 218.59375c0 4.265625 3.460938 7.726562 7.730469 7.726562h5.867188c4.269531 0 7.730469-3.460937 7.730469-7.726562 0-4.269531-3.460938-7.730469-7.730469-7.730469h-5.867188c-4.269531 0-7.730469 3.460938-7.730469 7.730469zm0 0"/><path d="m254.386719 243.457031c-3.015625-3.015625-7.910157-3.015625-10.929688.003907-3.015625 3.015624-3.015625 7.910156 0 10.929687 3.113281 2.609375 4.847657 6.410156 9.617188 6.410156 6.824219 0 10.347656-8.3125 5.464843-13.191406zm0 0"/><path d="m226.320312 267.355469v-5.867188c0-4.269531-3.460937-7.730469-7.726562-7.730469-4.269531 0-7.730469 3.460938-7.730469 7.730469v5.867188c0 4.269531 3.460938 7.730469 7.730469 7.730469 4.265625 0 7.726562-3.460938 7.726562-7.730469zm0 0"/><path d="m182.796875 243.457031-4.152344 4.152344c-3.015625 3.015625-3.015625 7.910156 0 10.929687 3.019531 3.015626 7.910157 3.019532 10.929688 0l4.152343-4.148437c3.015626-3.019531 3.015626-7.914063 0-10.929687-3.019531-3.019532-7.910156-3.019532-10.929687-.003907zm0 0"/><path d="m183.425781 218.59375c0-4.269531-3.460937-7.730469-7.730469-7.730469h-5.867187c-4.269531 0-7.726563 3.460938-7.726563 7.730469 0 4.265625 3.457032 7.726562 7.726563 7.726562h5.867187c4.269532 0 7.730469-3.460937 7.730469-7.726562zm0 0"/><path d="m188.261719 195.988281c6.824219 0 10.347656-8.3125 5.464843-13.191406l-4.152343-4.152344c-3.015625-3.015625-7.910157-3.015625-10.929688.003907-3.015625 3.015624-3.015625 7.910156.003907 10.929687 3.109374 2.609375 4.84375 6.410156 9.613281 6.410156zm0 0"/></g></svg>