<svg height="511pt" viewBox="-114 1 511 511.99975" width="511pt" xmlns="http://www.w3.org/2000/svg"><path d="m177.164062 289.28125 24.632813-13.25c4.027344-2.167969 6.535156-6.367188 6.535156-10.9375v-19.738281h-132.894531v203.480469c0 5.058593 2.101562 9.890624 5.804688 13.339843l48.214843 44.929688c7 6.527343 17.855469 6.527343 24.859375 0l48.214844-44.929688c3.699219-3.449219 5.800781-8.28125 5.800781-13.339843v-51.113282c0-4.570312-2.507812-8.773437-6.535156-10.9375l-24.632813-13.253906c-4.964843-2.671875-4.964843-9.792969 0-12.464844l24.457032-13.15625c4.132812-2.222656 6.710937-6.539062 6.710937-11.234375v-10.539062c0-4.691407-2.578125-9.007813-6.710937-11.230469l-24.457032-13.160156c-4.964843-2.671875-4.964843-9.792969 0-12.464844zm0 0" fill="#ccdfed"/><path d="m177.164062 289.28125 24.632813-13.25c4.027344-2.167969 6.535156-6.367188 6.535156-10.9375v-19.738281h-42.234375v23.480469c0 2.265624-1.246094 4.347656-3.242187 5.421874l-27.925781 15.023438c-4.96875 2.671875-4.96875 9.792969 0 12.464844l24.453124 13.160156c4.136719 2.222656 6.714844 6.539062 6.714844 11.230469v10.539062c0 4.695313-2.578125 9.011719-6.714844 11.234375l-24.453124 13.15625c-4.96875 2.671875-4.96875 9.792969 0 12.464844l27.925781 15.027344c1.996093 1.074218 3.242187 3.15625 3.242187 5.421875v54.855469c0 5.058593-2.101562 9.890624-5.804687 13.339843l-39.523438 36.832031 8.6875 8.097657c7 6.527343 17.859375 6.527343 24.859375 0l48.214844-44.929688c3.703125-3.449219 5.800781-8.28125 5.800781-13.339843v-51.113282c0-4.570312-2.507812-8.773437-6.53125-10.9375l-24.636719-13.253906c-4.964843-2.671875-4.964843-9.792969 0-12.464844l24.457032-13.15625c4.136718-2.222656 6.710937-6.539062 6.710937-11.234375v-10.539062c0-4.691407-2.574219-9.007813-6.710937-11.230469l-24.457032-13.160156c-4.964843-2.671875-4.964843-9.792969 0-12.464844zm0 0" fill="#b2c2cf"/><path d="m227.339844 0h-170.910156c-30.890626 0-55.929688 25.039062-55.929688 55.929688v125.328124c0 17.953126 14.554688 32.503907 32.507812 32.503907h217.757813c17.953125 0 32.503906-14.550781 32.503906-32.503907 0-25.4375 0-98.027343 0-125.328124 0-30.890626-25.039062-55.929688-55.929687-55.929688zm-13.339844 57.820312c0 12.730469-10.320312 23.046876-23.050781 23.046876h-98.125c-12.730469 0-23.050781-10.316407-23.050781-23.046876 0-12.730468 10.320312-23.050781 23.050781-23.050781h98.125c12.730469 0 23.050781 10.320313 23.050781 23.050781zm0 0" fill="#423e38"/><path d="m227.339844 0h-44.296875c30.890625 0 55.929687 25.039062 55.929687 55.929688v125.328124c0 17.953126-14.554687 32.503907-32.503906 32.503907h44.296875c17.953125 0 32.507813-14.550781 32.507813-32.503907 0-25.4375 0-98.027343 0-125.328124-.003907-30.890626-25.042969-55.929688-55.933594-55.929688zm0 0" fill="#302e29"/><path d="m220.179688 245.355469h-156.585938c-6.257812 0-11.332031-5.074219-11.332031-11.332031v-20.261719h179.25v20.261719c0 6.257812-5.074219 11.332031-11.332031 11.332031zm0 0" fill="#423e38"/><path d="m200.605469 213.761719v19.917969c0 6.449218-5.226563 11.675781-11.675781 11.675781h30.90625c6.449218 0 11.675781-5.226563 11.675781-11.675781v-19.917969zm0 0" fill="#302e29"/></svg>