<svg height="511pt" viewBox="0 -80 511.99945 511" width="511pt" xmlns="http://www.w3.org/2000/svg"><path d="m510.300781 95.242188c-6.722656-18.191407-13.40625-36.628907-23.332031-52.023438-6.84375-10.621094-20.15625-15.117188-32.082031-10.953125-23.71875 8.285156-47.863281 9.113281-72.890625-2.277344-83.359375-37.941406-145.847656-40.671875-235.203125 0-25.125 11.433594-49.46875 10.667969-74.035157 1.871094-10.449218-3.738281-22.148437-1.125-29.707031 7.003906-14.460937 15.5625-28.933593 34.835938-39.589843 54.003907-5.550782 9.984374-4.335938 22.355468 3.011718 31.105468 21.1875 25.222656 40.171875 80.226563 58.023438 107.359375h381.824218c18.066407-27.457031 37.289063-83.472656 58.789063-108.261719 6.652344-7.671874 8.710937-18.300781 5.191406-27.828124zm0 0" fill="#2c5771"/><path d="m510.300781 95.242188c-6.722656-18.191407-13.40625-36.628907-23.332031-52.023438-5.445312-8.449219-14.984375-13.003906-24.664062-12.421875 3.707031 8.730469 7.027343 17.800781 10.359374 26.8125 3.515626 9.523437 1.46875 20.144531-5.183593 27.816406-5.324219 6.140625-10.515625 14.195313-15.578125 23.261719-29.292969 52.429688-84.5625 85.011719-144.617188 85.011719h-262.648437c6.800781 14.371093 13.402343 27.824219 19.855469 37.636719h381.828124c18.066407-27.464844 37.292969-83.488282 58.796876-108.273438 6.652343-7.671875 8.703124-18.292969 5.183593-27.820312zm0 0" fill="#24475c"/><path d="m64.492188 231.332031h381.828124v52.191407h-381.828124zm0 0" fill="#e0a812"/><path d="m322.507812 124.609375c-.433593-7.316406-2.328124-14.484375-5.554687-21.0625-6.402344-13.050781-5.53125-25.902344 2.417969-38.558594.585937-.929687.460937-2.136719-.316406-2.914062l-10.753907-10.753907c-.820312-.820312-2.128906-.921874-3.054687-.214843-15.214844 11.617187-31.042969 10.832031-47.371094.03125-1.140625-.757813-2.617188-.757813-3.757812 0-16.328126 10.800781-32.15625 11.585937-47.367188-.03125-.925781-.707031-2.234375-.605469-3.058594.214843l-10.753906 10.753907c-.777344.777343-.898438 1.984375-.316406 2.914062 7.953125 12.65625 8.824218 25.507813 2.421875 38.558594-3.855469 7.859375-5.679688 16.574219-5.671875 23.902344-.886719 35.007812 21 57.125 56.710937 71.425781 6.359375 2.546875 13.46875 2.546875 19.828125 0 36.667969-14.683594 58.765625-37.605469 56.597656-74.265625zm0 0" fill="#ffbf14"/><path d="m322.507812 124.609375c-.433593-7.316406-2.328124-14.484375-5.554687-21.0625-6.402344-13.050781-5.53125-25.902344 2.417969-38.558594.585937-.929687.460937-2.136719-.316406-2.914062l-10.753907-10.753907c-.820312-.820312-2.132812-.921874-3.054687-.214843-6.613282 5.050781-13.34375 7.753906-20.175782 8.3125-5.703124 11.3125-5.785156 22.777343-.082031 34.398437 3.226563 6.578125 5.121094 13.746094 5.554688 21.0625 2.167969 36.660156-19.929688 59.585938-56.59375 74.265625-1.707031.679688-3.464844 1.175781-5.25 1.492188 5.34375 3 11.148437 5.742187 17.382812 8.238281 6.359375 2.546875 13.46875 2.546875 19.832031 0 36.664063-14.683594 58.761719-37.605469 56.59375-74.265625zm0 0" fill="#e0a812"/><path d="m460.445312 294.445312-14.125-10.921874h-381.828124l-14.125 10.921874c-8.816407 6.820313-6.5 20.753907 4.070312 24.285157 133.894531 44.710937 267.925781 44.75 401.933594 0 10.574218-3.53125 12.890625-17.464844 4.074218-24.285157zm0 0" fill="#24475c"/></svg>