<svg height="512pt" viewBox="-89 0 511 512" width="512pt" xmlns="http://www.w3.org/2000/svg"><path d="m232.644531 512h-130.9375c-21.007812 0-38.039062-17.03125-38.039062-38.039062v-1.464844h207.015625v1.464844c0 21.007812-17.03125 38.039062-38.039063 38.039062zm0 0" fill="#423e38"/><path d="m226.375 472.496094c0 21.816406-17.6875 39.503906-39.507812 39.503906h44.3125c21.816406 0 39.503906-17.6875 39.503906-39.503906zm0 0" fill="#302e29"/><path d="m81.84375 169.28125v-53.136719c0-44 35.796875-79.796875 79.796875-79.796875 43.996094 0 79.792969 35.796875 79.792969 79.796875v53.136719h36.347656v-53.136719c0-64.042969-52.101562-116.144531-116.144531-116.144531-64.039063 0-116.140625 52.101562-116.140625 116.144531v53.136719zm0 0" fill="#ccdfed"/><path d="m45.496094 133.453125h36.347656v35.828125h-36.347656zm0 0" fill="#b2c2cf"/><path d="m241.433594 133.453125h36.347656v35.828125h-36.347656zm0 0" fill="#b2c2cf"/><path d="m291.546875 169.28125h-248.738281c-23.367188 0-42.308594 18.941406-42.308594 42.308594v218.597656c0 23.367188 18.941406 42.308594 42.308594 42.308594h248.738281c23.363281 0 42.308594-18.941406 42.308594-42.308594 0-25.570312 0-195.753906 0-218.597656 0-23.367188-18.945313-42.308594-42.308594-42.308594zm0 0" fill="#45748c"/><path d="m291.546875 169.28125h-4.929687v213.667969c0 23.367187-18.941407 42.308593-42.308594 42.308593h-243.808594v4.929688c0 23.367188 18.941406 42.308594 42.308594 42.308594h248.738281c23.363281 0 42.308594-18.941406 42.308594-42.308594 0-25.570312 0-195.753906 0-218.597656 0-23.367188-18.945313-42.308594-42.308594-42.308594zm0 0" fill="#3a6175"/><path d="m267.265625 240.421875c-11.855469 0-188.855469 0-200.175781 0-6.527344 0-11.816406 5.289063-11.816406 11.8125v40.761719c0 6.527344 5.289062 11.816406 11.816406 11.816406h200.175781c6.523437 0 11.8125-5.289062 11.8125-11.816406v-40.761719c0-6.523437-5.289063-11.8125-11.8125-11.8125zm0 0" fill="#423e38"/><path d="m267.265625 240.421875h-43.878906c6.523437 0 11.8125 5.289063 11.8125 11.8125v40.761719c0 6.527344-5.289063 11.816406-11.8125 11.816406h43.878906c6.523437 0 11.8125-5.289062 11.8125-11.816406v-40.761719c0-6.523437-5.289063-11.8125-11.8125-11.8125zm0 0" fill="#302e29"/><g fill="#423e38"><path d="m242.988281 357.777344c0-4.300782-3.484375-7.789063-7.789062-7.789063h-136.046875c-4.300782 0-7.789063 3.488281-7.789063 7.789063 0 4.300781 3.488281 7.789062 7.789063 7.789062h136.050781c4.300781 0 7.785156-3.488281 7.785156-7.789062zm0 0"/><path d="m133.597656 402.953125c-4.300781 0-7.789062 3.488281-7.789062 7.789063 0 4.300781 3.488281 7.789062 7.789062 7.789062h67.160156c4.300782 0 7.789063-3.488281 7.789063-7.789062 0-4.300782-3.488281-7.789063-7.789063-7.789063zm0 0"/></g></svg>