<svg height="512pt" viewBox="0 -81 512.001 512" width="512pt" xmlns="http://www.w3.org/2000/svg"><path d="m490.195312 0h-159.851562c-12.042969 0-21.804688 9.761719-21.804688 21.804688v3.320312h23.785157c12.058593 0 21.832031 9.777344 21.832031 21.835938v200.640624c0 12.058594-9.773438 21.835938-21.832031 21.835938h-23.785157v59.363281c0 12.042969 9.761719 21.804688 21.804688 21.804688h159.851562c12.042969 0 21.804688-9.761719 21.804688-21.804688v-306.996093c0-12.042969-9.761719-21.804688-21.804688-21.804688zm0 0" fill="#45748c"/><path d="m490.195312 0h-9.445312v297.550781c0 12.042969-9.761719 21.804688-21.804688 21.804688-22.886718 0-127.195312 0-150.40625 0v9.445312c0 12.042969 9.761719 21.804688 21.804688 21.804688h159.851562c12.042969 0 21.804688-9.761719 21.804688-21.804688v-306.996093c0-12.042969-9.761719-21.804688-21.804688-21.804688zm0 0" fill="#3a6175"/><path d="m332.324219 25.125c-15.308594 0-295.101563 0-310.488281 0-12.058594 0-21.835938 9.777344-21.835938 21.835938v200.640624c0 12.058594 9.777344 21.835938 21.835938 21.835938h310.488281c12.058593 0 21.835937-9.777344 21.835937-21.835938v-200.640624c0-12.058594-9.777344-21.835938-21.835937-21.835938zm0 0" fill="#ccdfed"/><path d="m332.324219 25.125h-10.496094v190.144531c0 12.058594-9.777344 21.835938-21.835937 21.835938h-299.992188v10.496093c0 12.058594 9.777344 21.835938 21.835938 21.835938h310.488281c12.058593 0 21.835937-9.777344 21.835937-21.835938v-200.640624c0-12.058594-9.777344-21.835938-21.835937-21.835938zm0 0" fill="#b2c2cf"/><path d="m316.28125 212.21875h-278.402344c-3.34375 0-6.054687-2.710938-6.054687-6.054688v-142.417968c0-3.34375 2.710937-6.054688 6.054687-6.054688h278.402344c3.34375 0 6.054688 2.710938 6.054688 6.054688v142.417968c0 3.34375-2.710938 6.054688-6.054688 6.054688zm0 0" fill="#8dffff"/><path d="m293.488281 57.691406v79.808594c0 25.335938-20.535156 45.871094-45.871093 45.871094h-215.792969v22.609375c0 3.445312 2.792969 6.238281 6.238281 6.238281h278.035156c3.445313 0 6.238282-2.792969 6.238282-6.238281v-142.054688c0-3.441406-2.792969-6.234375-6.238282-6.234375zm0 0" fill="#7de3e3"/><path d="m105.511719 269.4375h143.136719v40.960938h-143.136719zm0 0" fill="#9dbdcb"/><path d="m213.421875 269.4375h35.226563v40.960938h-35.226563zm0 0" fill="#86a1ad"/><path d="m275.003906 348.289062h-195.847656c-4.898438 0-8.871094-3.972656-8.871094-8.875 0-17.304687 14.027344-31.332031 31.332032-31.332031h150.921874c30.3125 0 40.542969 40.207031 22.464844 40.207031zm0 0" fill="#9dbdcb"/><path d="m252.539062 308.082031h-38.457031c30.351563 0 40.441407 40.203125 22.460938 40.203125h38.460937c18.027344.003906 7.800782-40.203125-22.464844-40.203125zm0 0" fill="#86a1ad"/><path d="m448.925781 271.625c0 21.347656-17.304687 38.65625-38.65625 38.65625-21.347656 0-38.65625-17.308594-38.65625-38.65625 0-21.351562 17.308594-38.65625 38.65625-38.65625 21.351563 0 38.65625 17.304688 38.65625 38.65625zm0 0" fill="#ff6d3a"/><path d="m425.496094 236.085938c13.710937 31.957031-18.8125 64.472656-50.765625 50.765624 5.914062 13.777344 19.597656 23.429688 35.539062 23.429688 21.351563 0 38.65625-17.308594 38.65625-38.65625 0-15.941406-9.652343-29.628906-23.429687-35.539062zm0 0" fill="#db5e32"/><g fill="#ff6d3a"><path d="m354.160156 155.117188v25.410156h127.613282c3.371093 0 6.101562-2.734375 6.101562-6.101563v-13.207031c0-3.371094-2.730469-6.101562-6.101562-6.101562zm0 0"/><path d="m169.351562 236.597656v6.183594c0 4.265625 3.460938 7.722656 7.726563 7.722656 4.269531 0 7.726563-3.457031 7.726563-7.722656v-6.183594c0-4.265625-3.457032-7.726562-7.726563-7.726562-4.265625 0-7.726563 3.460937-7.726563 7.726562zm0 0"/><path d="m364.425781 102.675781c0 4.269531 3.460938 7.726563 7.726563 7.726563h76.234375c4.265625 0 7.726562-3.460938 7.726562-7.726563 0-4.269531-3.460937-7.726562-7.726562-7.726562h-76.234375c-4.265625 0-7.726563 3.457031-7.726563 7.726562zm0 0"/><path d="m430.53125 65.417969c4.265625 0 7.726562-3.460938 7.726562-7.726563 0-4.269531-3.460937-7.726562-7.726562-7.726562h-40.523438c-4.265624 0-7.726562 3.457031-7.726562 7.726562 0 4.265625 3.460938 7.726563 7.726562 7.726563zm0 0"/></g></svg>