<svg height="511pt" viewBox="-137 1 511 511.99989" width="511pt" xmlns="http://www.w3.org/2000/svg"><path d="m124.414062 512h-10.871093c-11.878907 0-21.503907-9.628906-21.503907-21.503906v-5.171875h53.878907v5.171875c0 11.875-9.625 21.503906-21.503907 21.503906zm0 0" fill="#423e38"/><path d="m226.761719.0390625h-215.566407c-5.90625 0-10.695312 4.7890625-10.695312 10.6953125v99.984375c0 40.433594 20.261719 76.136719 51.183594 97.515625 7.933594 5.484375 12.691406 14.5 12.691406 24.148437v222.09375c0 19.535157 15.835938 35.371094 35.371094 35.371094h38.464844c19.535156 0 35.371093-15.835937 35.371093-35.371094v-222.09375c0-9.648437 4.757813-18.660156 12.691407-24.148437 30.921874-21.378906 51.183593-57.078125 51.183593-97.515625v-99.984375c0-5.90625-4.789062-10.6953125-10.695312-10.6953125zm0 0" fill="#ffbf14"/><path d="m226.761719.0390625h-41.207031c5.90625 0 10.691406 4.7890625 10.691406 10.6953125v99.984375c0 40.433594-20.261719 76.136719-51.179688 97.515625-7.9375 5.484375-12.695312 14.5-12.695312 24.148437v222.09375c0 19.074219-15.097656 34.625-33.996094 35.347657 1.25.046875-.734375.015625 39.835938.023437 19.535156 0 35.371093-15.835937 35.371093-35.371094v-222.09375c0-9.648437 4.757813-18.660156 12.695313-24.148437 30.917968-21.378906 51.179687-57.078125 51.179687-97.515625v-99.984375c0-5.90625-4.789062-10.6953125-10.695312-10.6953125zm0 0" fill="#e0a812"/><path d="m64.375 252.890625h109.207031v149.386719h-109.207031zm0 0" fill="#423e38"/><path d="m132.371094 252.890625h41.210937v149.386719h-41.210937zm0 0" fill="#302e29"/><path d="m119.574219 365.191406h-1.191407c-10.910156 0-19.75-8.84375-19.75-19.753906v-35.703125c0-10.910156 8.839844-19.753906 19.75-19.753906h1.191407c10.910156 0 19.75 8.84375 19.75 19.753906v35.703125c0 10.90625-8.84375 19.753906-19.75 19.753906zm0 0" fill="#ccdfed"/><path d="m119.574219 365.191406h-1.191407c-10.910156 0-19.75-8.84375-19.75-19.753906v-1.191406c0-10.90625 8.839844-19.75 19.75-19.75h1.191407c10.910156 0 19.75 8.84375 19.75 19.75v1.191406c0 10.90625-8.84375 19.753906-19.75 19.753906zm0 0" fill="#ff4c4c"/><path d="m226.761719.0390625h-215.566407c-5.90625 0-10.695312 4.7890625-10.695312 10.6953125v32.671875h236.957031v-32.671875c0-5.90625-4.789062-10.6953125-10.695312-10.6953125zm0 0" fill="#ff4c4c"/><path d="m231.632812 1.210938c-4.003906-2.046876-3.648437-.792969-46.082031-1.1718755 5.90625 0 10.695313 4.7890625 10.695313 10.6953125v32.671875h41.210937v-32.671875c0-4.160156-2.375-7.753906-5.824219-9.523437zm0 0" fill="#d43f3f"/></svg>